<?xml version="1.0" standalone="no"?><!DOCTYPE svg PUBLIC "-//W3C//DTD SVG 1.1//EN" "http://www.w3.org/Graphics/SVG/1.1/DTD/svg11.dtd"><svg t="1652854221835" class="icon" viewBox="0 0 1024 1024" version="1.1" xmlns="http://www.w3.org/2000/svg" p-id="17159" xmlns:xlink="http://www.w3.org/1999/xlink" width="200" height="200"><defs><style type="text/css">@font-face { font-family: feedback-iconfont; src: url("//at.alicdn.com/t/font_1031158_u69w8yhxdu.woff2?t=1630033759944") format("woff2"), url("//at.alicdn.com/t/font_1031158_u69w8yhxdu.woff?t=1630033759944") format("woff"), url("//at.alicdn.com/t/font_1031158_u69w8yhxdu.ttf?t=1630033759944") format("truetype"); }
</style></defs><path d="M867.881007 1019.215866H163.148741c-44.521739 0-80.74447-36.222731-80.744469-80.74447V555.057208h-2.929062c-42.080854 0-56.921434-27.533181-60.436308-36.02746-3.514874-8.396644-12.887872-38.370709 16.598016-68.344775l0.488177-0.488177L466.697178 36.418002C481.928299 21.089245 502.236461 12.692601 523.716247 12.692601s41.690313 8.396644 57.01907 23.627765l71.273836 71.371472c11.325706-31.048055 41.006865-53.211289 75.862701-53.211289h94.413424c44.521739 0 80.74447 36.222731 80.74447 80.74447v212.747521c0 5.955759 5.369947 19.331808 9.470633 23.823036l82.404272 78.010679 0.683448 0.683448c19.429443 20.015256 25.580473 45.498093 16.402746 68.149504 0 0.097635-0.097635 0.195271-0.097636 0.292906-3.514874 8.494279-18.453089 36.02746-60.436308 36.02746h-2.929062V938.276125c0.097635 21.577422-8.299008 41.983219-23.627765 57.311976-15.231121 15.231121-35.539283 23.627765-57.019069 23.627765zM67.466056 482.318841c-9.177727 9.470633-8.396644 16.10984-7.029748 19.331807 1.366895 3.221968 5.565217 8.494279 19.038902 8.49428h17.086194c16.988558 0 30.755149 13.76659 30.755148 30.755148v397.57132c0 19.722349 16.10984 35.832189 35.832189 35.832189h704.732266c9.470633 0 18.453089-3.710145 25.189931-10.544622 6.834477-6.834477 10.544622-15.914569 10.544623-25.580473V540.704805c0-16.988558 13.76659-30.755149 30.755148-30.755148h17.086194c13.278413 0 17.574371-5.174676 18.941266-8.396644 2.245614-5.858124 0-12.399695-6.736842-19.527079l-82.404271-78.010678-0.585813-0.585813c-12.399695-12.692601-22.45614-37.589626-22.45614-55.456903V135.225019c0-19.722349-16.10984-35.832189-35.832189-35.832189h-94.413425c-19.722349 0-35.832189 16.10984-35.832189 35.832189v21.870328c0 9.080092-5.467582 17.281465-13.864226 20.796339-8.396644 3.514874-18.062548 1.562166-24.506484-4.88177L548.906178 68.149504c-6.834477-6.834477-15.621663-10.544622-25.189931-10.544622s-18.550725 3.80778-25.385202 10.642258l-0.390542 0.390541L67.466056 482.318841z" p-id="17160"></path><path d="M515.026697 835.075515c-43.935927 0-86.797864-13.083143-123.996949-38.273074-49.012967-33.196034-82.111365-83.575896-93.2418-141.668955s1.073989-117.162471 34.270023-166.175439c33.196034-49.012967 83.575896-82.111365 141.668955-93.2418 58.190694-11.130435 117.162471 1.073989 166.175439 34.270023 49.012967 33.196034 82.111365 83.575896 93.2418 141.668955 11.130435 58.190694-1.073989 117.162471-34.270023 166.175439-33.196034 49.012967-83.575896 82.111365-141.668955 93.2418-14.157132 2.636156-28.216629 4.003051-42.17849 4.003051z m0.781083-408.213578c-11.813883 0-23.627765 1.073989-35.441647 3.417239-48.915332 9.372998-91.289092 37.199085-119.212815 78.401221-27.923722 41.202136-38.175439 90.898551-28.802441 139.813882 9.372998 48.915332 37.199085 91.289092 78.401221 119.212815 41.202136 27.923722 90.898551 38.175439 139.813882 28.802441 48.915332-9.372998 91.289092-37.199085 119.212815-78.401221 27.923722-41.202136 38.175439-90.898551 28.802441-139.813882-9.372998-48.915332-37.199085-91.289092-78.401221-119.212815-31.243326-21.284516-67.368421-32.21968-104.372235-32.21968z" p-id="17161"></path><path d="M591.963387 681.983219H489.934401c-9.665904 0-17.574371-7.908467-17.57437-17.574371V528.305111c0-9.665904 7.908467-17.574371 17.57437-17.574371s17.574371 7.908467 17.574371 17.574371v118.529366h84.454615c9.665904 0 17.574371 7.908467 17.57437 17.574371s-7.908467 17.574371-17.57437 17.574371z" p-id="17162"></path></svg>